<?xml version="1.0" encoding="UTF-8" standalone="no"?>
<!-- Created with Inkscape (http://www.inkscape.org/) -->

<svg
   width="512"
   height="512"
   viewBox="0 0 512 512"
   version="1.1"
   id="svg1"
   inkscape:version="1.3 (0e150ed6c4, 2023-07-21)"
   sodipodi:docname="camera.svg"
   inkscape:export-filename="camera.png"
   inkscape:export-xdpi="96"
   inkscape:export-ydpi="96"
   xmlns:inkscape="http://www.inkscape.org/namespaces/inkscape"
   xmlns:sodipodi="http://sodipodi.sourceforge.net/DTD/sodipodi-0.dtd"
   xmlns="http://www.w3.org/2000/svg"
   xmlns:svg="http://www.w3.org/2000/svg">
  <sodipodi:namedview
     id="namedview1"
     pagecolor="#ffffff"
     bordercolor="#000000"
     borderopacity="0.25"
     inkscape:showpageshadow="2"
     inkscape:pageopacity="0.0"
     inkscape:pagecheckerboard="0"
     inkscape:deskcolor="#d1d1d1"
     inkscape:document-units="px"
     inkscape:zoom="1.1835938"
     inkscape:cx="256"
     inkscape:cy="255.57756"
     inkscape:window-width="1600"
     inkscape:window-height="877"
     inkscape:window-x="-8"
     inkscape:window-y="-8"
     inkscape:window-maximized="1"
     inkscape:current-layer="layer1" />
  <defs
     id="defs1" />
  <g
     inkscape:label="Strat 1"
     inkscape:groupmode="layer"
     id="layer1">
    <rect
       style="fill:#0b1728;stroke-width:15.15;stroke-linejoin:bevel"
       id="rect1"
       width="512"
       height="512"
       x="0"
       y="0" />
    <g
       id="g5">
      <path
         id="rect5"
         style="fill:#0b1728;stroke:#ffffff;stroke-width:15;stroke-linejoin:bevel"
         d="m 386.95709,104.58182 h 47.31353 v 47.41749 H 386.95709 Z M 93.782173,50.509216 H 137.82013 V 78.86758 H 93.782173 Z M 53.704909,78.867582 H 458.29509 V 181.46632 H 53.704909 Z m 0,0 H 458.29509 V 461.49078 H 53.704909 Z" />
      <path
         id="path5"
         style="fill:#0b1728;stroke:#ffffff;stroke-width:15;stroke-linejoin:bevel"
         d="M 286.83828,256 A 30.83828,30.83828 0 0 1 256,286.83828 30.83828,30.83828 0 0 1 225.16172,256 30.83828,30.83828 0 0 1 256,225.16172 30.83828,30.83828 0 0 1 286.83828,256 Z m 79.84159,0 A 110.67987,110.67987 0 0 1 256,366.67987 110.67987,110.67987 0 0 1 145.32013,256 110.67987,110.67987 0 0 1 256,145.32013 110.67987,110.67987 0 0 1 366.67987,256 Z" />
    </g>
  </g>
</svg>
