# Blender 4.4.3
# www.blender.org
mtllib train_gl.mtl
o Plane.036
v -2.400000 3.070006 78.900002
v -2.400000 1.070006 78.900002
v -2.400000 3.070004 60.900002
v -2.400000 1.070005 60.900002
v -2.400000 3.070001 9.000000
v -2.400000 1.070001 9.000000
v -2.400000 3.069999 -9.000000
v -2.400000 1.069999 -9.000000
v 2.420000 1.070001 9.000000
v 2.420000 3.070001 9.000000
v 2.420000 1.069999 -9.000000
v 2.420000 3.069999 -9.000000
v -0.480000 1.399999 -9.540000
v 0.480000 1.399999 -9.540000
v -0.480000 2.599999 -9.540000
v 0.480000 2.599999 -9.540000
v 2.420000 1.070002 32.299999
v 2.420000 3.070002 32.299999
v 2.420000 1.070001 14.299999
v 2.420000 3.070001 14.299999
v -2.400000 3.070002 32.299999
v -2.400000 1.070002 32.299999
v -2.400000 3.070001 14.299999
v -2.400000 1.070001 14.299999
v -2.400000 3.070004 55.599998
v -2.400000 1.070004 55.599998
v -2.400000 3.070003 37.599998
v -2.400000 1.070003 37.599998
v 2.420000 1.070004 55.599998
v 2.420000 3.070004 55.599998
v 2.420000 1.070003 37.599998
v 2.420000 3.070003 37.599998
v 2.420000 1.070006 78.900002
v 2.420000 3.070006 78.900002
v 2.420000 1.070005 60.900002
v 2.420000 3.070004 60.900002
vn 1.0000 -0.0000 -0.0000
vn -1.0000 -0.0000 -0.0000
vn -0.0000 -0.0000 1.0000
vt 1.000000 0.000000
vt 0.000000 1.000000
vt 0.000000 0.000000
vt 1.000000 1.000000
s 1
f 2/1/1 3/2/1 1/3/1
f 2/1/1 4/4/1 3/2/1
f 6/1/1 7/2/1 5/3/1
f 6/1/1 8/4/1 7/2/1
f 10/1/2 11/2/2 9/3/2
f 10/1/2 12/4/2 11/2/2
f 14/1/3 15/2/3 13/3/3
f 14/1/3 16/4/3 15/2/3
f 18/1/2 19/2/2 17/3/2
f 18/1/2 20/4/2 19/2/2
f 22/1/1 23/2/1 21/3/1
f 22/1/1 24/4/1 23/2/1
f 26/1/1 27/2/1 25/3/1
f 26/1/1 28/4/1 27/2/1
f 30/1/2 31/2/2 29/3/2
f 30/1/2 32/4/2 31/2/2
f 34/1/2 35/2/2 33/3/2
f 34/1/2 36/4/2 35/2/2
