# Blender 4.4.3
# www.blender.org
mtllib train_door.mtl
o Cube.217
v -0.576000 0.000000 9.480001
v -0.576000 3.100000 9.480001
v 0.576000 0.000000 9.480000
v 0.576000 3.100000 9.480000
v -0.576000 0.000000 9.520001
v -0.576000 3.100000 9.520001
v 0.576000 0.000000 9.520000
v 0.576000 3.100000 9.520000
v -0.380160 1.472000 9.480001
v -0.380160 2.528000 9.480001
v 0.380160 2.528000 9.480000
v 0.380160 1.472000 9.480000
v 0.380160 1.472000 9.520000
v 0.380160 2.528000 9.520000
v -0.380160 1.472000 9.520001
v -0.380160 2.528000 9.520001
vn -0.0000 -0.0000 -1.0000
vn 1.0000 -0.0000 -0.0000
vn -0.0000 -0.0000 1.0000
vn -1.0000 -0.0000 -0.0000
vn -0.0000 -1.0000 -0.0000
vn -0.0000 1.0000 -0.0000
vt -0.549790 -0.293641
vt -0.162384 1.023804
vt -0.549790 1.293642
vt 1.549790 -0.293641
vt 1.549790 1.293642
vt 0.552828 -0.023803
vt -7.298439 0.999900
vt 8.298439 0.000100
vt 8.298440 0.999900
vt 1.549790 -0.218056
vt 1.162384 0.973918
vt 1.162384 0.026083
vt -0.549790 1.218057
vt -0.549790 -0.218056
vt 0.447172 0.973918
vt 4.799140 0.000100
vt -3.799140 0.999900
vt -3.799140 0.000100
vt 47.090679 0.999900
vt -46.090683 0.000100
vt 47.090668 0.000100
vt 0.000100 52.814545
vt 0.999900 -51.814545
vt 0.999900 52.814545
vt 0.016556 0.000057
vt 0.313521 0.999942
vt 0.016556 0.999942
vt 0.000057 0.999943
vt 0.330020 0.000057
vt 0.330020 0.999943
vt 0.560990 0.999919
vt 0.099065 0.000081
vt 0.560990 0.000081
vt 0.659974 0.999919
vt 0.000081 0.000081
vt 0.659974 0.000081
vt -0.162384 -0.023803
vt 0.552828 1.023804
vt -7.298440 0.000100
vt 1.549790 1.218057
vt 0.447172 0.026083
vt 4.799140 0.999900
vt -46.090679 0.999900
vt 0.000100 -51.814529
vt 0.313521 0.000058
vt 0.000057 0.000057
vt 0.099065 0.999919
vt 0.000081 0.999919
s 0
usemtl Material
f 4/1/1 10/2/1 2/3/1
f 3/4/1 1/5/1 12/6/1
f 4/7/2 7/8/2 3/9/2
f 8/10/3 16/11/3 14/12/3
f 5/13/3 7/14/3 15/15/3
f 6/16/4 1/17/4 5/18/4
f 7/19/5 1/20/5 3/21/5
f 4/22/6 6/23/6 8/24/6
f 9/25/2 16/26/2 15/27/2
f 12/28/4 14/29/4 11/30/4
f 12/31/6 15/32/6 13/33/6
f 10/34/5 14/35/5 16/36/5
f 4/1/1 11/37/1 10/2/1
f 12/6/1 11/37/1 4/1/1
f 1/5/1 2/3/1 10/2/1
f 1/5/1 10/2/1 9/38/1
f 12/6/1 4/1/1 3/4/1
f 1/5/1 9/38/1 12/6/1
f 4/7/2 8/39/2 7/8/2
f 8/10/3 6/40/3 16/11/3
f 16/11/3 6/40/3 5/13/3
f 7/14/3 8/10/3 14/12/3
f 7/14/3 14/12/3 13/41/3
f 15/15/3 16/11/3 5/13/3
f 7/14/3 13/41/3 15/15/3
f 6/16/4 2/42/4 1/17/4
f 7/19/5 5/43/5 1/20/5
f 4/22/6 2/44/6 6/23/6
f 9/25/2 10/45/2 16/26/2
f 12/28/4 13/46/4 14/29/4
f 12/31/6 9/47/6 15/32/6
f 10/34/5 11/48/5 14/35/5
o Cube.218
v -0.576000 0.000000 13.740001
v -0.576000 3.100000 13.740001
v 0.576000 0.000000 13.740001
v 0.576000 3.100000 13.740001
v -0.576000 0.000000 13.760001
v -0.576000 3.100000 13.760001
v 0.576000 0.000000 13.760001
v 0.576000 3.100000 13.760001
v -0.380160 1.472000 13.740001
v -0.380160 2.528000 13.740001
v 0.380160 2.528000 13.740001
v 0.380160 1.472000 13.740001
v 0.380160 1.472000 13.760001
v 0.380160 2.528000 13.760001
v -0.380160 1.472000 13.760001
v -0.380160 2.528000 13.760001
vn -0.0000 -0.0000 -1.0000
vn 1.0000 -0.0000 -0.0000
vn -0.0000 -0.0000 1.0000
vn -1.0000 -0.0000 -0.0000
vn -0.0000 -1.0000 -0.0000
vn -0.0000 1.0000 -0.0000
vt -0.549790 -0.293641
vt -0.162384 1.023804
vt -0.549790 1.293642
vt 1.549790 -0.293641
vt 1.549790 1.293642
vt 0.552828 -0.023803
vt -7.298439 0.999900
vt 8.298439 0.000100
vt 8.298440 0.999900
vt 1.549790 -0.218056
vt 1.162384 0.973918
vt 1.162384 0.026083
vt -0.549790 1.218057
vt -0.549790 -0.218056
vt 0.447172 0.973918
vt 4.799140 0.000100
vt -3.799140 0.999900
vt -3.799140 0.000100
vt 47.090679 0.999900
vt -46.090683 0.000100
vt 47.090668 0.000100
vt 0.000100 52.814545
vt 0.999900 -51.814545
vt 0.999900 52.814545
vt 0.016556 0.000057
vt 0.313521 0.999942
vt 0.016556 0.999942
vt 0.000057 0.999943
vt 0.330020 0.000057
vt 0.330020 0.999943
vt 0.560990 0.999919
vt 0.099065 0.000081
vt 0.560990 0.000081
vt 0.659974 0.999919
vt 0.000081 0.000081
vt 0.659974 0.000081
vt -0.162384 -0.023803
vt 0.552828 1.023804
vt -7.298440 0.000100
vt 1.549790 1.218057
vt 0.447172 0.026083
vt 4.799140 0.999900
vt -46.090679 0.999900
vt 0.000100 -51.814529
vt 0.313521 0.000058
vt 0.000057 0.000057
vt 0.099065 0.999919
vt 0.000081 0.999919
s 0
usemtl Material
f 20/49/7 26/50/7 18/51/7
f 19/52/7 17/53/7 28/54/7
f 20/55/8 23/56/8 19/57/8
f 24/58/9 32/59/9 30/60/9
f 21/61/9 23/62/9 31/63/9
f 22/64/10 17/65/10 21/66/10
f 23/67/11 17/68/11 19/69/11
f 20/70/12 22/71/12 24/72/12
f 25/73/8 32/74/8 31/75/8
f 28/76/10 30/77/10 27/78/10
f 28/79/12 31/80/12 29/81/12
f 26/82/11 30/83/11 32/84/11
f 20/49/7 27/85/7 26/50/7
f 28/54/7 27/85/7 20/49/7
f 17/53/7 18/51/7 26/50/7
f 17/53/7 26/50/7 25/86/7
f 28/54/7 20/49/7 19/52/7
f 17/53/7 25/86/7 28/54/7
f 20/55/8 24/87/8 23/56/8
f 24/58/9 22/88/9 32/59/9
f 32/59/9 22/88/9 21/61/9
f 23/62/9 24/58/9 30/60/9
f 23/62/9 30/60/9 29/89/9
f 31/63/9 32/59/9 21/61/9
f 23/62/9 29/89/9 31/63/9
f 22/64/10 18/90/10 17/65/10
f 23/67/11 21/91/11 17/68/11
f 20/70/12 18/92/12 22/71/12
f 25/73/8 26/93/8 32/74/8
f 28/76/10 29/94/10 30/77/10
f 28/79/12 25/95/12 31/80/12
f 26/82/11 27/96/11 30/83/11
o Cube.219
v -0.576000 0.000000 32.790001
v -0.576000 3.100000 32.790001
v 0.576000 0.000000 32.790001
v 0.576000 3.100000 32.790001
v -0.576000 0.000000 32.809998
v -0.576000 3.100000 32.809998
v 0.576000 0.000000 32.809998
v 0.576000 3.100000 32.809998
v -0.380160 1.472000 32.790001
v -0.380160 2.528000 32.790001
v 0.380160 2.528000 32.790001
v 0.380160 1.472000 32.790001
v 0.380160 1.472000 32.809998
v 0.380160 2.528000 32.809998
v -0.380160 1.472000 32.809998
v -0.380160 2.528000 32.809998
vn -0.0000 -0.0000 -1.0000
vn 1.0000 -0.0000 -0.0000
vn -0.0000 -0.0000 1.0000
vn -1.0000 -0.0000 -0.0000
vn -0.0000 -1.0000 -0.0000
vn -0.0000 1.0000 -0.0000
vt -0.549790 -0.293641
vt -0.162384 1.023804
vt -0.549790 1.293642
vt 1.549790 -0.293641
vt 1.549790 1.293642
vt 0.552828 -0.023803
vt -7.298439 0.999900
vt 8.298439 0.000100
vt 8.298440 0.999900
vt 1.549790 -0.218056
vt 1.162384 0.973918
vt 1.162384 0.026083
vt -0.549790 1.218057
vt -0.549790 -0.218056
vt 0.447172 0.973918
vt 4.799140 0.000100
vt -3.799140 0.999900
vt -3.799140 0.000100
vt 47.090679 0.999900
vt -46.090683 0.000100
vt 47.090668 0.000100
vt 0.000100 52.814545
vt 0.999900 -51.814545
vt 0.999900 52.814545
vt 0.016556 0.000057
vt 0.313521 0.999942
vt 0.016556 0.999942
vt 0.000057 0.999943
vt 0.330020 0.000057
vt 0.330020 0.999943
vt 0.560990 0.999919
vt 0.099065 0.000081
vt 0.560990 0.000081
vt 0.659974 0.999919
vt 0.000081 0.000081
vt 0.659974 0.000081
vt -0.162384 -0.023803
vt 0.552828 1.023804
vt -7.298440 0.000100
vt 1.549790 1.218057
vt 0.447172 0.026083
vt 4.799140 0.999900
vt -46.090679 0.999900
vt 0.000100 -51.814529
vt 0.313521 0.000058
vt 0.000057 0.000057
vt 0.099065 0.999919
vt 0.000081 0.999919
s 0
usemtl Material
f 36/97/13 42/98/13 34/99/13
f 35/100/13 33/101/13 44/102/13
f 36/103/14 39/104/14 35/105/14
f 40/106/15 48/107/15 46/108/15
f 37/109/15 39/110/15 47/111/15
f 38/112/16 33/113/16 37/114/16
f 39/115/17 33/116/17 35/117/17
f 36/118/18 38/119/18 40/120/18
f 41/121/14 48/122/14 47/123/14
f 44/124/16 46/125/16 43/126/16
f 44/127/18 47/128/18 45/129/18
f 42/130/17 46/131/17 48/132/17
f 36/97/13 43/133/13 42/98/13
f 44/102/13 43/133/13 36/97/13
f 33/101/13 34/99/13 42/98/13
f 33/101/13 42/98/13 41/134/13
f 44/102/13 36/97/13 35/100/13
f 33/101/13 41/134/13 44/102/13
f 36/103/14 40/135/14 39/104/14
f 40/106/15 38/136/15 48/107/15
f 48/107/15 38/136/15 37/109/15
f 39/110/15 40/106/15 46/108/15
f 39/110/15 46/108/15 45/137/15
f 47/111/15 48/107/15 37/109/15
f 39/110/15 45/137/15 47/111/15
f 38/112/16 34/138/16 33/113/16
f 39/115/17 37/139/17 33/116/17
f 36/118/18 34/140/18 38/119/18
f 41/121/14 42/141/14 48/122/14
f 44/124/16 45/142/16 46/125/16
f 44/127/18 41/143/18 47/128/18
f 42/130/17 43/144/17 46/131/17
o Cube.220
v -0.576000 0.000000 37.040001
v -0.576000 3.100000 37.040001
v 0.576000 0.000000 37.040001
v 0.576000 3.100000 37.040001
v -0.576000 0.000000 37.059998
v -0.576000 3.100000 37.059998
v 0.576000 0.000000 37.059998
v 0.576000 3.100000 37.059998
v -0.380160 1.472000 37.040001
v -0.380160 2.528000 37.040001
v 0.380160 2.528000 37.040001
v 0.380160 1.472000 37.040001
v 0.380160 1.472000 37.059998
v 0.380160 2.528000 37.059998
v -0.380160 1.472000 37.059998
v -0.380160 2.528000 37.059998
vn -0.0000 -0.0000 -1.0000
vn 1.0000 -0.0000 -0.0000
vn -0.0000 -0.0000 1.0000
vn -1.0000 -0.0000 -0.0000
vn -0.0000 -1.0000 -0.0000
vn -0.0000 1.0000 -0.0000
vt -0.549790 -0.293641
vt -0.162384 1.023804
vt -0.549790 1.293642
vt 1.549790 -0.293641
vt 1.549790 1.293642
vt 0.552828 -0.023803
vt -7.298439 0.999900
vt 8.298439 0.000100
vt 8.298440 0.999900
vt 1.549790 -0.218056
vt 1.162384 0.973918
vt 1.162384 0.026083
vt -0.549790 1.218057
vt -0.549790 -0.218056
vt 0.447172 0.973918
vt 4.799140 0.000100
vt -3.799140 0.999900
vt -3.799140 0.000100
vt 47.090679 0.999900
vt -46.090683 0.000100
vt 47.090668 0.000100
vt 0.000100 52.814545
vt 0.999900 -51.814545
vt 0.999900 52.814545
vt 0.016556 0.000057
vt 0.313521 0.999942
vt 0.016556 0.999942
vt 0.000057 0.999943
vt 0.330020 0.000057
vt 0.330020 0.999943
vt 0.560990 0.999919
vt 0.099065 0.000081
vt 0.560990 0.000081
vt 0.659974 0.999919
vt 0.000081 0.000081
vt 0.659974 0.000081
vt -0.162384 -0.023803
vt 0.552828 1.023804
vt -7.298440 0.000100
vt 1.549790 1.218057
vt 0.447172 0.026083
vt 4.799140 0.999900
vt -46.090679 0.999900
vt 0.000100 -51.814529
vt 0.313521 0.000058
vt 0.000057 0.000057
vt 0.099065 0.999919
vt 0.000081 0.999919
s 0
usemtl Material.010
f 52/145/19 58/146/19 50/147/19
f 51/148/19 49/149/19 60/150/19
f 52/151/20 55/152/20 51/153/20
f 56/154/21 64/155/21 62/156/21
f 53/157/21 55/158/21 63/159/21
f 54/160/22 49/161/22 53/162/22
f 55/163/23 49/164/23 51/165/23
f 52/166/24 54/167/24 56/168/24
f 57/169/20 64/170/20 63/171/20
f 60/172/22 62/173/22 59/174/22
f 60/175/24 63/176/24 61/177/24
f 58/178/23 62/179/23 64/180/23
f 52/145/19 59/181/19 58/146/19
f 60/150/19 59/181/19 52/145/19
f 49/149/19 50/147/19 58/146/19
f 49/149/19 58/146/19 57/182/19
f 60/150/19 52/145/19 51/148/19
f 49/149/19 57/182/19 60/150/19
f 52/151/20 56/183/20 55/152/20
f 56/154/21 54/184/21 64/155/21
f 64/155/21 54/184/21 53/157/21
f 55/158/21 56/154/21 62/156/21
f 55/158/21 62/156/21 61/185/21
f 63/159/21 64/155/21 53/157/21
f 55/158/21 61/185/21 63/159/21
f 54/160/22 50/186/22 49/161/22
f 55/163/23 53/187/23 49/164/23
f 52/166/24 50/188/24 54/167/24
f 57/169/20 58/189/20 64/170/20
f 60/172/22 61/190/22 62/173/22
f 60/175/24 57/191/24 63/176/24
f 58/178/23 59/192/23 62/179/23
o Cube.221
v -0.576000 0.000000 56.090000
v -0.576000 3.100000 56.090000
v 0.576000 0.000000 56.090000
v 0.576000 3.100000 56.090000
v -0.576000 0.000000 56.109997
v -0.576000 3.100000 56.109997
v 0.576000 0.000000 56.109997
v 0.576000 3.100000 56.109997
v -0.380160 1.472000 56.090000
v -0.380160 2.528000 56.090000
v 0.380160 2.528000 56.090000
v 0.380160 1.472000 56.090000
v 0.380160 1.472000 56.109997
v 0.380160 2.528000 56.109997
v -0.380160 1.472000 56.109997
v -0.380160 2.528000 56.109997
vn -0.0000 -0.0000 -1.0000
vn 1.0000 -0.0000 -0.0000
vn -0.0000 -0.0000 1.0000
vn -1.0000 -0.0000 -0.0000
vn -0.0000 -1.0000 -0.0000
vn -0.0000 1.0000 -0.0000
vt -0.549790 -0.293641
vt -0.162384 1.023804
vt -0.549790 1.293642
vt 1.549790 -0.293641
vt 1.549790 1.293642
vt 0.552828 -0.023803
vt -7.298439 0.999900
vt 8.298439 0.000100
vt 8.298440 0.999900
vt 1.549790 -0.218056
vt 1.162384 0.973918
vt 1.162384 0.026083
vt -0.549790 1.218057
vt -0.549790 -0.218056
vt 0.447172 0.973918
vt 4.799140 0.000100
vt -3.799140 0.999900
vt -3.799140 0.000100
vt 47.090679 0.999900
vt -46.090683 0.000100
vt 47.090668 0.000100
vt 0.000100 52.814545
vt 0.999900 -51.814545
vt 0.999900 52.814545
vt 0.016556 0.000057
vt 0.313521 0.999942
vt 0.016556 0.999942
vt 0.000057 0.999943
vt 0.330020 0.000057
vt 0.330020 0.999943
vt 0.560990 0.999919
vt 0.099065 0.000081
vt 0.560990 0.000081
vt 0.659974 0.999919
vt 0.000081 0.000081
vt 0.659974 0.000081
vt -0.162384 -0.023803
vt 0.552828 1.023804
vt -7.298440 0.000100
vt 1.549790 1.218057
vt 0.447172 0.026083
vt 4.799140 0.999900
vt -46.090679 0.999900
vt 0.000100 -51.814529
vt 0.313521 0.000058
vt 0.000057 0.000057
vt 0.099065 0.999919
vt 0.000081 0.999919
s 0
usemtl Material.010
f 68/193/25 74/194/25 66/195/25
f 67/196/25 65/197/25 76/198/25
f 68/199/26 71/200/26 67/201/26
f 72/202/27 80/203/27 78/204/27
f 69/205/27 71/206/27 79/207/27
f 70/208/28 65/209/28 69/210/28
f 71/211/29 65/212/29 67/213/29
f 68/214/30 70/215/30 72/216/30
f 73/217/26 80/218/26 79/219/26
f 76/220/28 78/221/28 75/222/28
f 76/223/30 79/224/30 77/225/30
f 74/226/29 78/227/29 80/228/29
f 68/193/25 75/229/25 74/194/25
f 76/198/25 75/229/25 68/193/25
f 65/197/25 66/195/25 74/194/25
f 65/197/25 74/194/25 73/230/25
f 76/198/25 68/193/25 67/196/25
f 65/197/25 73/230/25 76/198/25
f 68/199/26 72/231/26 71/200/26
f 72/202/27 70/232/27 80/203/27
f 80/203/27 70/232/27 69/205/27
f 71/206/27 72/202/27 78/204/27
f 71/206/27 78/204/27 77/233/27
f 79/207/27 80/203/27 69/205/27
f 71/206/27 77/233/27 79/207/27
f 70/208/28 66/234/28 65/209/28
f 71/211/29 69/235/29 65/212/29
f 68/214/30 66/236/30 70/215/30
f 73/217/26 74/237/26 80/218/26
f 76/220/28 77/238/28 78/221/28
f 76/223/30 73/239/30 79/224/30
f 74/226/29 75/240/29 78/227/29
o Cube.222
v -0.576000 0.000000 60.320000
v -0.576000 3.100000 60.320000
v 0.576000 0.000000 60.320000
v 0.576000 3.100000 60.320000
v -0.576000 0.000000 60.339996
v -0.576000 3.100000 60.339996
v 0.576000 0.000000 60.339996
v 0.576000 3.100000 60.339996
v -0.380160 1.472000 60.320000
v -0.380160 2.528000 60.320000
v 0.380160 2.528000 60.320000
v 0.380160 1.472000 60.320000
v 0.380160 1.472000 60.339996
v 0.380160 2.528000 60.339996
v -0.380160 1.472000 60.339996
v -0.380160 2.528000 60.339996
vn -0.0000 -0.0000 -1.0000
vn 1.0000 -0.0000 -0.0000
vn -0.0000 -0.0000 1.0000
vn -1.0000 -0.0000 -0.0000
vn -0.0000 -1.0000 -0.0000
vn -0.0000 1.0000 -0.0000
vt -0.549790 -0.293641
vt -0.162384 1.023804
vt -0.549790 1.293642
vt 1.549790 -0.293641
vt 1.549790 1.293642
vt 0.552828 -0.023803
vt -7.298439 0.999900
vt 8.298439 0.000100
vt 8.298440 0.999900
vt 1.549790 -0.218056
vt 1.162384 0.973918
vt 1.162384 0.026083
vt -0.549790 1.218057
vt -0.549790 -0.218056
vt 0.447172 0.973918
vt 4.799140 0.000100
vt -3.799140 0.999900
vt -3.799140 0.000100
vt 47.090679 0.999900
vt -46.090683 0.000100
vt 47.090668 0.000100
vt 0.000100 52.814545
vt 0.999900 -51.814545
vt 0.999900 52.814545
vt 0.016556 0.000057
vt 0.313521 0.999942
vt 0.016556 0.999942
vt 0.000057 0.999943
vt 0.330020 0.000057
vt 0.330020 0.999943
vt 0.560990 0.999919
vt 0.099065 0.000081
vt 0.560990 0.000081
vt 0.659974 0.999919
vt 0.000081 0.000081
vt 0.659974 0.000081
vt -0.162384 -0.023803
vt 0.552828 1.023804
vt -7.298440 0.000100
vt 1.549790 1.218057
vt 0.447172 0.026083
vt 4.799140 0.999900
vt -46.090679 0.999900
vt 0.000100 -51.814529
vt 0.313521 0.000058
vt 0.000057 0.000057
vt 0.099065 0.999919
vt 0.000081 0.999919
s 0
usemtl Material.010
f 84/241/31 90/242/31 82/243/31
f 83/244/31 81/245/31 92/246/31
f 84/247/32 87/248/32 83/249/32
f 88/250/33 96/251/33 94/252/33
f 85/253/33 87/254/33 95/255/33
f 86/256/34 81/257/34 85/258/34
f 87/259/35 81/260/35 83/261/35
f 84/262/36 86/263/36 88/264/36
f 89/265/32 96/266/32 95/267/32
f 92/268/34 94/269/34 91/270/34
f 92/271/36 95/272/36 93/273/36
f 90/274/35 94/275/35 96/276/35
f 84/241/31 91/277/31 90/242/31
f 92/246/31 91/277/31 84/241/31
f 81/245/31 82/243/31 90/242/31
f 81/245/31 90/242/31 89/278/31
f 92/246/31 84/241/31 83/244/31
f 81/245/31 89/278/31 92/246/31
f 84/247/32 88/279/32 87/248/32
f 88/250/33 86/280/33 96/251/33
f 96/251/33 86/280/33 85/253/33
f 87/254/33 88/250/33 94/252/33
f 87/254/33 94/252/33 93/281/33
f 95/255/33 96/251/33 85/253/33
f 87/254/33 93/281/33 95/255/33
f 86/256/34 82/282/34 81/257/34
f 87/259/35 85/283/35 81/260/35
f 84/262/36 82/284/36 86/263/36
f 89/265/32 90/285/32 96/266/32
f 92/268/34 93/286/34 94/269/34
f 92/271/36 89/287/36 95/272/36
f 90/274/35 91/288/35 94/275/35
o Cube.223
v -0.576000 0.000000 79.370003
v -0.576000 3.100000 79.370003
v 0.576000 0.000000 79.370003
v 0.576000 3.100000 79.370003
v -0.576000 0.000000 79.390007
v -0.576000 3.100000 79.390007
v 0.576000 0.000000 79.390007
v 0.576000 3.100000 79.390007
v -0.380160 1.472000 79.370003
v -0.380160 2.528000 79.370003
v 0.380160 2.528000 79.370003
v 0.380160 1.472000 79.370003
v 0.380160 1.472000 79.390007
v 0.380160 2.528000 79.390007
v -0.380160 1.472000 79.390007
v -0.380160 2.528000 79.390007
vn -0.0000 -0.0000 -1.0000
vn 1.0000 -0.0000 -0.0000
vn -0.0000 -0.0000 1.0000
vn -1.0000 -0.0000 -0.0000
vn -0.0000 -1.0000 -0.0000
vn -0.0000 1.0000 -0.0000
vt -0.549790 -0.293641
vt -0.162384 1.023804
vt -0.549790 1.293642
vt 1.549790 -0.293641
vt 1.549790 1.293642
vt 0.552828 -0.023803
vt -7.298439 0.999900
vt 8.298439 0.000100
vt 8.298440 0.999900
vt 1.549790 -0.218056
vt 1.162384 0.973918
vt 1.162384 0.026083
vt -0.549790 1.218057
vt -0.549790 -0.218056
vt 0.447172 0.973918
vt 4.799140 0.000100
vt -3.799140 0.999900
vt -3.799140 0.000100
vt 47.090679 0.999900
vt -46.090683 0.000100
vt 47.090668 0.000100
vt 0.000100 52.814545
vt 0.999900 -51.814545
vt 0.999900 52.814545
vt 0.016556 0.000057
vt 0.313521 0.999942
vt 0.016556 0.999942
vt 0.000057 0.999943
vt 0.330020 0.000057
vt 0.330020 0.999943
vt 0.560990 0.999919
vt 0.099065 0.000081
vt 0.560990 0.000081
vt 0.659974 0.999919
vt 0.000081 0.000081
vt 0.659974 0.000081
vt -0.162384 -0.023803
vt 0.552828 1.023804
vt -7.298440 0.000100
vt 1.549790 1.218057
vt 0.447172 0.026083
vt 4.799140 0.999900
vt -46.090679 0.999900
vt 0.000100 -51.814529
vt 0.313521 0.000058
vt 0.000057 0.000057
vt 0.099065 0.999919
vt 0.000081 0.999919
s 0
usemtl Material.010
f 100/289/37 106/290/37 98/291/37
f 99/292/37 97/293/37 108/294/37
f 100/295/38 103/296/38 99/297/38
f 104/298/39 112/299/39 110/300/39
f 101/301/39 103/302/39 111/303/39
f 102/304/40 97/305/40 101/306/40
f 103/307/41 97/308/41 99/309/41
f 100/310/42 102/311/42 104/312/42
f 105/313/38 112/314/38 111/315/38
f 108/316/40 110/317/40 107/318/40
f 108/319/42 111/320/42 109/321/42
f 106/322/41 110/323/41 112/324/41
f 100/289/37 107/325/37 106/290/37
f 108/294/37 107/325/37 100/289/37
f 97/293/37 98/291/37 106/290/37
f 97/293/37 106/290/37 105/326/37
f 108/294/37 100/289/37 99/292/37
f 97/293/37 105/326/37 108/294/37
f 100/295/38 104/327/38 103/296/38
f 104/298/39 102/328/39 112/299/39
f 112/299/39 102/328/39 101/301/39
f 103/302/39 104/298/39 110/300/39
f 103/302/39 110/300/39 109/329/39
f 111/303/39 112/299/39 101/301/39
f 103/302/39 109/329/39 111/303/39
f 102/304/40 98/330/40 97/305/40
f 103/307/41 101/331/41 97/308/41
f 100/310/42 98/332/42 102/311/42
f 105/313/38 106/333/38 112/314/38
f 108/316/40 109/334/40 110/317/40
f 108/319/42 105/335/42 111/320/42
f 106/322/41 107/336/41 110/323/41
