# Blender 4.4.3
# www.blender.org
mtllib train_ground.mtl
o Plane.064
v -6.485892 -1.120106 18.035593
v 6.314108 -1.120106 18.035593
v -6.485892 -1.120106 5.235593
v 6.314108 -1.120106 5.235593
v -6.485892 -1.120106 5.235594
v 6.314108 -1.120106 5.235594
v -6.485892 -1.120106 -7.564407
v 6.314108 -1.120106 -7.564407
vn -0.0000 1.0000 -0.0000
vt 2.580000 -1.580000
vt -1.580000 2.580000
vt -1.580000 -1.580000
vt 2.580000 2.580000
s 0
usemtl Material.027
f 2/1/1 3/2/1 1/3/1
f 6/1/1 7/2/1 5/3/1
f 2/1/1 4/4/1 3/2/1
f 6/1/1 8/4/1 7/2/1
o Cube.225
v -1.200000 -1.220106 18.035595
v -1.200000 -1.020106 18.035595
v -1.200000 -1.220106 17.635593
v -1.200000 -1.020106 17.635593
v 1.200000 -1.220106 18.035595
v 1.200000 -1.020106 18.035595
v 1.200000 -1.220106 17.635593
v 1.200000 -1.020106 17.635593
v -1.200000 -1.220106 17.275595
v -1.200000 -1.020106 17.275595
v -1.200000 -1.220106 16.875595
v -1.200000 -1.020106 16.875595
v 1.200000 -1.220106 17.275595
v 1.200000 -1.020106 17.275595
v 1.200000 -1.220106 16.875595
v 1.200000 -1.020106 16.875595
v -1.200000 -1.220106 16.515594
v -1.200000 -1.020106 16.515594
v -1.200000 -1.220106 16.115595
v -1.200000 -1.020106 16.115595
v 1.200000 -1.220106 16.515594
v 1.200000 -1.020106 16.515594
v 1.200000 -1.220106 16.115595
v 1.200000 -1.020106 16.115595
v -1.200000 -1.220106 15.755594
v -1.200000 -1.020106 15.755594
v -1.200000 -1.220106 15.355595
v -1.200000 -1.020106 15.355595
v 1.200000 -1.220106 15.755594
v 1.200000 -1.020106 15.755594
v 1.200000 -1.220106 15.355595
v 1.200000 -1.020106 15.355595
v -1.200000 -1.220106 14.995594
v -1.200000 -1.020106 14.995594
v -1.200000 -1.220106 14.595594
v -1.200000 -1.020106 14.595594
v 1.200000 -1.220106 14.995594
v 1.200000 -1.020106 14.995594
v 1.200000 -1.220106 14.595594
v 1.200000 -1.020106 14.595594
v -1.200000 -1.220106 14.235594
v -1.200000 -1.020106 14.235594
v -1.200000 -1.220106 13.835594
v -1.200000 -1.020106 13.835594
v 1.200000 -1.220106 14.235594
v 1.200000 -1.020106 14.235594
v 1.200000 -1.220106 13.835594
v 1.200000 -1.020106 13.835594
v -1.200000 -1.220106 13.475595
v -1.200000 -1.020106 13.475595
v -1.200000 -1.220106 13.075594
v -1.200000 -1.020106 13.075594
v 1.200000 -1.220106 13.475595
v 1.200000 -1.020106 13.475595
v 1.200000 -1.220106 13.075594
v 1.200000 -1.020106 13.075594
v -1.200000 -1.220106 12.715595
v -1.200000 -1.020106 12.715595
v -1.200000 -1.220106 12.315595
v -1.200000 -1.020106 12.315595
v 1.200000 -1.220106 12.715595
v 1.200000 -1.020106 12.715595
v 1.200000 -1.220106 12.315595
v 1.200000 -1.020106 12.315595
v -1.200000 -1.220106 11.955595
v -1.200000 -1.020106 11.955595
v -1.200000 -1.220106 11.555595
v -1.200000 -1.020106 11.555595
v 1.200000 -1.220106 11.955595
v 1.200000 -1.020106 11.955595
v 1.200000 -1.220106 11.555595
v 1.200000 -1.020106 11.555595
v -1.200000 -1.220106 11.195595
v -1.200000 -1.020106 11.195595
v -1.200000 -1.220106 10.795595
v -1.200000 -1.020106 10.795595
v 1.200000 -1.220106 11.195595
v 1.200000 -1.020106 11.195595
v 1.200000 -1.220106 10.795595
v 1.200000 -1.020106 10.795595
v -1.200000 -1.220106 10.435596
v -1.200000 -1.020106 10.435596
v -1.200000 -1.220106 10.035595
v -1.200000 -1.020106 10.035595
v 1.200000 -1.220106 10.435596
v 1.200000 -1.020106 10.435596
v 1.200000 -1.220106 10.035595
v 1.200000 -1.020106 10.035595
v -1.200000 -1.220106 9.675595
v -1.200000 -1.020106 9.675595
v -1.200000 -1.220106 9.275596
v -1.200000 -1.020106 9.275596
v 1.200000 -1.220106 9.675595
v 1.200000 -1.020106 9.675595
v 1.200000 -1.220106 9.275596
v 1.200000 -1.020106 9.275596
v -1.200000 -1.220106 8.915596
v -1.200000 -1.020106 8.915596
v -1.200000 -1.220106 8.515595
v -1.200000 -1.020106 8.515595
v 1.200000 -1.220106 8.915596
v 1.200000 -1.020106 8.915596
v 1.200000 -1.220106 8.515595
v 1.200000 -1.020106 8.515595
v -1.200000 -1.220106 8.155596
v -1.200000 -1.020106 8.155596
v -1.200000 -1.220106 7.755596
v -1.200000 -1.020106 7.755596
v 1.200000 -1.220106 8.155596
v 1.200000 -1.020106 8.155596
v 1.200000 -1.220106 7.755596
v 1.200000 -1.020106 7.755596
v -1.200000 -1.220106 7.395597
v -1.200000 -1.020106 7.395597
v -1.200000 -1.220106 6.995596
v -1.200000 -1.020106 6.995596
v 1.200000 -1.220106 7.395597
v 1.200000 -1.020106 7.395597
v 1.200000 -1.220106 6.995596
v 1.200000 -1.020106 6.995596
v -1.200000 -1.220106 6.635596
v -1.200000 -1.020106 6.635596
v -1.200000 -1.220106 6.235597
v -1.200000 -1.020106 6.235597
v 1.200000 -1.220106 6.635596
v 1.200000 -1.020106 6.635596
v 1.200000 -1.220106 6.235597
v 1.200000 -1.020106 6.235597
v -1.200000 -1.220106 5.875597
v -1.200000 -1.020106 5.875597
v -1.200000 -1.220106 5.475596
v -1.200000 -1.020106 5.475596
v 1.200000 -1.220106 5.875597
v 1.200000 -1.020106 5.875597
v 1.200000 -1.220106 5.475596
v 1.200000 -1.020106 5.475596
v -1.200000 -1.220106 5.235595
v -1.200000 -1.020106 5.235595
v -1.200000 -1.220106 4.835595
v -1.200000 -1.020106 4.835595
v 1.200000 -1.220106 5.235595
v 1.200000 -1.020106 5.235595
v 1.200000 -1.220106 4.835595
v 1.200000 -1.020106 4.835595
v -1.200000 -1.220106 4.475595
v -1.200000 -1.020106 4.475595
v -1.200000 -1.220106 4.075594
v -1.200000 -1.020106 4.075594
v 1.200000 -1.220106 4.475595
v 1.200000 -1.020106 4.475595
v 1.200000 -1.220106 4.075594
v 1.200000 -1.020106 4.075594
v -1.200000 -1.220106 3.715595
v -1.200000 -1.020106 3.715595
v -1.200000 -1.220106 3.315596
v -1.200000 -1.020106 3.315596
v 1.200000 -1.220106 3.715595
v 1.200000 -1.020106 3.715595
v 1.200000 -1.220106 3.315596
v 1.200000 -1.020106 3.315596
v -1.200000 -1.220106 2.955595
v -1.200000 -1.020106 2.955595
v -1.200000 -1.220106 2.555594
v -1.200000 -1.020106 2.555594
v 1.200000 -1.220106 2.955595
v 1.200000 -1.020106 2.955595
v 1.200000 -1.220106 2.555594
v 1.200000 -1.020106 2.555594
v -1.200000 -1.220106 2.195596
v -1.200000 -1.020106 2.195596
v -1.200000 -1.220106 1.795595
v -1.200000 -1.020106 1.795595
v 1.200000 -1.220106 2.195596
v 1.200000 -1.020106 2.195596
v 1.200000 -1.220106 1.795595
v 1.200000 -1.020106 1.795595
v -1.200000 -1.220106 1.435595
v -1.200000 -1.020106 1.435595
v -1.200000 -1.220106 1.035595
v -1.200000 -1.020106 1.035595
v 1.200000 -1.220106 1.435595
v 1.200000 -1.020106 1.435595
v 1.200000 -1.220106 1.035595
v 1.200000 -1.020106 1.035595
v -1.200000 -1.220106 0.675596
v -1.200000 -1.020106 0.675596
v -1.200000 -1.220106 0.275597
v -1.200000 -1.020106 0.275597
v 1.200000 -1.220106 0.675596
v 1.200000 -1.020106 0.675596
v 1.200000 -1.220106 0.275597
v 1.200000 -1.020106 0.275597
v -1.200000 -1.220106 -0.084404
v -1.200000 -1.020106 -0.084404
v -1.200000 -1.220106 -0.484404
v -1.200000 -1.020106 -0.484404
v 1.200000 -1.220106 -0.084404
v 1.200000 -1.020106 -0.084404
v 1.200000 -1.220106 -0.484404
v 1.200000 -1.020106 -0.484404
v -1.200000 -1.220106 -0.844404
v -1.200000 -1.020106 -0.844404
v -1.200000 -1.220106 -1.244404
v -1.200000 -1.020106 -1.244404
v 1.200000 -1.220106 -0.844404
v 1.200000 -1.020106 -0.844404
v 1.200000 -1.220106 -1.244404
v 1.200000 -1.020106 -1.244404
v -1.200000 -1.220106 -1.604404
v -1.200000 -1.020106 -1.604404
v -1.200000 -1.220106 -2.004404
v -1.200000 -1.020106 -2.004404
v 1.200000 -1.220106 -1.604404
v 1.200000 -1.020106 -1.604404
v 1.200000 -1.220106 -2.004404
v 1.200000 -1.020106 -2.004404
v -1.200000 -1.220106 -2.364403
v -1.200000 -1.020106 -2.364403
v -1.200000 -1.220106 -2.764402
v -1.200000 -1.020106 -2.764402
v 1.200000 -1.220106 -2.364403
v 1.200000 -1.020106 -2.364403
v 1.200000 -1.220106 -2.764402
v 1.200000 -1.020106 -2.764402
v -1.200000 -1.220106 -3.124403
v -1.200000 -1.020106 -3.124403
v -1.200000 -1.220106 -3.524403
v -1.200000 -1.020106 -3.524403
v 1.200000 -1.220106 -3.124403
v 1.200000 -1.020106 -3.124403
v 1.200000 -1.220106 -3.524403
v 1.200000 -1.020106 -3.524403
v -1.200000 -1.220106 -3.884403
v -1.200000 -1.020106 -3.884403
v -1.200000 -1.220106 -4.284403
v -1.200000 -1.020106 -4.284403
v 1.200000 -1.220106 -3.884403
v 1.200000 -1.020106 -3.884403
v 1.200000 -1.220106 -4.284403
v 1.200000 -1.020106 -4.284403
v -1.200000 -1.220106 -4.644403
v -1.200000 -1.020106 -4.644403
v -1.200000 -1.220106 -5.044403
v -1.200000 -1.020106 -5.044403
v 1.200000 -1.220106 -4.644403
v 1.200000 -1.020106 -4.644403
v 1.200000 -1.220106 -5.044403
v 1.200000 -1.020106 -5.044403
v -1.200000 -1.220106 -5.404402
v -1.200000 -1.020106 -5.404402
v -1.200000 -1.220106 -5.804401
v -1.200000 -1.020106 -5.804401
v 1.200000 -1.220106 -5.404402
v 1.200000 -1.020106 -5.404402
v 1.200000 -1.220106 -5.804401
v 1.200000 -1.020106 -5.804401
v -1.200000 -1.220106 -6.164402
v -1.200000 -1.020106 -6.164402
v -1.200000 -1.220106 -6.564402
v -1.200000 -1.020106 -6.564402
v 1.200000 -1.220106 -6.164402
v 1.200000 -1.020106 -6.164402
v 1.200000 -1.220106 -6.564402
v 1.200000 -1.020106 -6.564402
v -1.200000 -1.220106 -6.924402
v -1.200000 -1.020106 -6.924402
v -1.200000 -1.220106 -7.324402
v -1.200000 -1.020106 -7.324402
v 1.200000 -1.220106 -6.924402
v 1.200000 -1.020106 -6.924402
v 1.200000 -1.220106 -7.324402
v 1.200000 -1.020106 -7.324402
vn -0.0000 -0.0000 -1.0000
vn -0.0000 -0.0000 1.0000
vn -0.0000 1.0000 -0.0000
vt 0.450010 1.549790
vt 0.549990 -0.549790
vt 0.549990 1.549790
vt 0.549990 -0.549790
vt 0.450010 1.549790
vt 0.450010 -0.549790
vt 0.756230 1.399820
vt 0.556270 -0.399820
vt 0.756230 -0.399820
vt 0.450010 -0.549790
vt 0.549990 1.549790
vt 0.556270 1.399820
s 0
usemtl Material.036
f 12/5/2 15/6/2 11/7/2
f 14/8/3 9/9/3 13/10/3
f 12/11/4 14/12/4 16/13/4
f 20/5/2 23/6/2 19/7/2
f 22/8/3 17/9/3 21/10/3
f 20/11/4 22/12/4 24/13/4
f 28/5/2 31/6/2 27/7/2
f 30/8/3 25/9/3 29/10/3
f 28/11/4 30/12/4 32/13/4
f 36/5/2 39/6/2 35/7/2
f 38/8/3 33/9/3 37/10/3
f 36/11/4 38/12/4 40/13/4
f 44/5/2 47/6/2 43/7/2
f 46/8/3 41/9/3 45/10/3
f 44/11/4 46/12/4 48/13/4
f 52/5/2 55/6/2 51/7/2
f 54/8/3 49/9/3 53/10/3
f 52/11/4 54/12/4 56/13/4
f 60/5/2 63/6/2 59/7/2
f 62/8/3 57/9/3 61/10/3
f 60/11/4 62/12/4 64/13/4
f 68/5/2 71/6/2 67/7/2
f 70/8/3 65/9/3 69/10/3
f 68/11/4 70/12/4 72/13/4
f 76/5/2 79/6/2 75/7/2
f 78/8/3 73/9/3 77/10/3
f 76/11/4 78/12/4 80/13/4
f 84/5/2 87/6/2 83/7/2
f 86/8/3 81/9/3 85/10/3
f 84/11/4 86/12/4 88/13/4
f 92/5/2 95/6/2 91/7/2
f 94/8/3 89/9/3 93/10/3
f 92/11/4 94/12/4 96/13/4
f 100/5/2 103/6/2 99/7/2
f 102/8/3 97/9/3 101/10/3
f 100/11/4 102/12/4 104/13/4
f 108/5/2 111/6/2 107/7/2
f 110/8/3 105/9/3 109/10/3
f 108/11/4 110/12/4 112/13/4
f 116/5/2 119/6/2 115/7/2
f 118/8/3 113/9/3 117/10/3
f 116/11/4 118/12/4 120/13/4
f 124/5/2 127/6/2 123/7/2
f 126/8/3 121/9/3 125/10/3
f 124/11/4 126/12/4 128/13/4
f 132/5/2 135/6/2 131/7/2
f 134/8/3 129/9/3 133/10/3
f 132/11/4 134/12/4 136/13/4
f 140/5/2 143/6/2 139/7/2
f 142/8/3 137/9/3 141/10/3
f 140/11/4 142/12/4 144/13/4
f 148/5/2 151/6/2 147/7/2
f 150/8/3 145/9/3 149/10/3
f 148/11/4 150/12/4 152/13/4
f 156/5/2 159/6/2 155/7/2
f 158/8/3 153/9/3 157/10/3
f 156/11/4 158/12/4 160/13/4
f 164/5/2 167/6/2 163/7/2
f 166/8/3 161/9/3 165/10/3
f 164/11/4 166/12/4 168/13/4
f 172/5/2 175/6/2 171/7/2
f 174/8/3 169/9/3 173/10/3
f 172/11/4 174/12/4 176/13/4
f 180/5/2 183/6/2 179/7/2
f 182/8/3 177/9/3 181/10/3
f 180/11/4 182/12/4 184/13/4
f 188/5/2 191/6/2 187/7/2
f 190/8/3 185/9/3 189/10/3
f 188/11/4 190/12/4 192/13/4
f 196/5/2 199/6/2 195/7/2
f 198/8/3 193/9/3 197/10/3
f 196/11/4 198/12/4 200/13/4
f 204/5/2 207/6/2 203/7/2
f 206/8/3 201/9/3 205/10/3
f 204/11/4 206/12/4 208/13/4
f 212/5/2 215/6/2 211/7/2
f 214/8/3 209/9/3 213/10/3
f 212/11/4 214/12/4 216/13/4
f 220/5/2 223/6/2 219/7/2
f 222/8/3 217/9/3 221/10/3
f 220/11/4 222/12/4 224/13/4
f 228/5/2 231/6/2 227/7/2
f 230/8/3 225/9/3 229/10/3
f 228/11/4 230/12/4 232/13/4
f 236/5/2 239/6/2 235/7/2
f 238/8/3 233/9/3 237/10/3
f 236/11/4 238/12/4 240/13/4
f 244/5/2 247/6/2 243/7/2
f 246/8/3 241/9/3 245/10/3
f 244/11/4 246/12/4 248/13/4
f 252/5/2 255/6/2 251/7/2
f 254/8/3 249/9/3 253/10/3
f 252/11/4 254/12/4 256/13/4
f 260/5/2 263/6/2 259/7/2
f 262/8/3 257/9/3 261/10/3
f 260/11/4 262/12/4 264/13/4
f 268/5/2 271/6/2 267/7/2
f 270/8/3 265/9/3 269/10/3
f 268/11/4 270/12/4 272/13/4
f 276/5/2 279/6/2 275/7/2
f 278/8/3 273/9/3 277/10/3
f 276/11/4 278/12/4 280/13/4
f 12/5/2 16/14/2 15/6/2
f 14/8/3 10/15/3 9/9/3
f 12/11/4 10/16/4 14/12/4
f 20/5/2 24/14/2 23/6/2
f 22/8/3 18/15/3 17/9/3
f 20/11/4 18/16/4 22/12/4
f 28/5/2 32/14/2 31/6/2
f 30/8/3 26/15/3 25/9/3
f 28/11/4 26/16/4 30/12/4
f 36/5/2 40/14/2 39/6/2
f 38/8/3 34/15/3 33/9/3
f 36/11/4 34/16/4 38/12/4
f 44/5/2 48/14/2 47/6/2
f 46/8/3 42/15/3 41/9/3
f 44/11/4 42/16/4 46/12/4
f 52/5/2 56/14/2 55/6/2
f 54/8/3 50/15/3 49/9/3
f 52/11/4 50/16/4 54/12/4
f 60/5/2 64/14/2 63/6/2
f 62/8/3 58/15/3 57/9/3
f 60/11/4 58/16/4 62/12/4
f 68/5/2 72/14/2 71/6/2
f 70/8/3 66/15/3 65/9/3
f 68/11/4 66/16/4 70/12/4
f 76/5/2 80/14/2 79/6/2
f 78/8/3 74/15/3 73/9/3
f 76/11/4 74/16/4 78/12/4
f 84/5/2 88/14/2 87/6/2
f 86/8/3 82/15/3 81/9/3
f 84/11/4 82/16/4 86/12/4
f 92/5/2 96/14/2 95/6/2
f 94/8/3 90/15/3 89/9/3
f 92/11/4 90/16/4 94/12/4
f 100/5/2 104/14/2 103/6/2
f 102/8/3 98/15/3 97/9/3
f 100/11/4 98/16/4 102/12/4
f 108/5/2 112/14/2 111/6/2
f 110/8/3 106/15/3 105/9/3
f 108/11/4 106/16/4 110/12/4
f 116/5/2 120/14/2 119/6/2
f 118/8/3 114/15/3 113/9/3
f 116/11/4 114/16/4 118/12/4
f 124/5/2 128/14/2 127/6/2
f 126/8/3 122/15/3 121/9/3
f 124/11/4 122/16/4 126/12/4
f 132/5/2 136/14/2 135/6/2
f 134/8/3 130/15/3 129/9/3
f 132/11/4 130/16/4 134/12/4
f 140/5/2 144/14/2 143/6/2
f 142/8/3 138/15/3 137/9/3
f 140/11/4 138/16/4 142/12/4
f 148/5/2 152/14/2 151/6/2
f 150/8/3 146/15/3 145/9/3
f 148/11/4 146/16/4 150/12/4
f 156/5/2 160/14/2 159/6/2
f 158/8/3 154/15/3 153/9/3
f 156/11/4 154/16/4 158/12/4
f 164/5/2 168/14/2 167/6/2
f 166/8/3 162/15/3 161/9/3
f 164/11/4 162/16/4 166/12/4
f 172/5/2 176/14/2 175/6/2
f 174/8/3 170/15/3 169/9/3
f 172/11/4 170/16/4 174/12/4
f 180/5/2 184/14/2 183/6/2
f 182/8/3 178/15/3 177/9/3
f 180/11/4 178/16/4 182/12/4
f 188/5/2 192/14/2 191/6/2
f 190/8/3 186/15/3 185/9/3
f 188/11/4 186/16/4 190/12/4
f 196/5/2 200/14/2 199/6/2
f 198/8/3 194/15/3 193/9/3
f 196/11/4 194/16/4 198/12/4
f 204/5/2 208/14/2 207/6/2
f 206/8/3 202/15/3 201/9/3
f 204/11/4 202/16/4 206/12/4
f 212/5/2 216/14/2 215/6/2
f 214/8/3 210/15/3 209/9/3
f 212/11/4 210/16/4 214/12/4
f 220/5/2 224/14/2 223/6/2
f 222/8/3 218/15/3 217/9/3
f 220/11/4 218/16/4 222/12/4
f 228/5/2 232/14/2 231/6/2
f 230/8/3 226/15/3 225/9/3
f 228/11/4 226/16/4 230/12/4
f 236/5/2 240/14/2 239/6/2
f 238/8/3 234/15/3 233/9/3
f 236/11/4 234/16/4 238/12/4
f 244/5/2 248/14/2 247/6/2
f 246/8/3 242/15/3 241/9/3
f 244/11/4 242/16/4 246/12/4
f 252/5/2 256/14/2 255/6/2
f 254/8/3 250/15/3 249/9/3
f 252/11/4 250/16/4 254/12/4
f 260/5/2 264/14/2 263/6/2
f 262/8/3 258/15/3 257/9/3
f 260/11/4 258/16/4 262/12/4
f 268/5/2 272/14/2 271/6/2
f 270/8/3 266/15/3 265/9/3
f 268/11/4 266/16/4 270/12/4
f 276/5/2 280/14/2 279/6/2
f 278/8/3 274/15/3 273/9/3
f 276/11/4 274/16/4 278/12/4
o Cube.227
v 1.100000 -1.320106 5.235593
v 1.100000 -0.920106 5.235593
v 1.100000 -1.320106 -7.564405
v 1.100000 -0.920106 -7.564405
v 1.500000 -1.320106 5.235593
v 1.500000 -0.920106 5.235593
v 1.500000 -1.320106 -7.564405
v 1.500000 -0.920106 -7.564405
v -1.500000 -1.320106 5.235593
v -1.500000 -0.920106 5.235593
v -1.500000 -1.320106 -7.564406
v -1.500000 -0.920106 -7.564406
v -1.100000 -1.320106 5.235593
v -1.100000 -0.920106 5.235593
v -1.100000 -1.320106 -7.564406
v -1.100000 -0.920106 -7.564406
v 1.100000 -1.320106 18.035593
v 1.100000 -0.920106 18.035593
v 1.100000 -1.320106 5.235593
v 1.100000 -0.920106 5.235593
v 1.500000 -1.320106 18.035593
v 1.500000 -0.920106 18.035593
v 1.500000 -1.320106 5.235593
v 1.500000 -0.920106 5.235593
v -1.500000 -1.320106 18.035593
v -1.500000 -0.920106 18.035593
v -1.500000 -1.320106 5.235593
v -1.500000 -0.920106 5.235593
v -1.100000 -1.320106 18.035593
v -1.100000 -0.920106 18.035593
v -1.100000 -1.320106 5.235593
v -1.100000 -0.920106 5.235593
vn -1.0000 -0.0000 -0.0000
vn 1.0000 -0.0000 -0.0000
vn -0.0000 1.0000 -0.0000
vt -29.799831 1.116595
vt 30.133244 2.349786
vt -29.799831 2.349786
vt 30.133232 -0.116596
vt -29.799839 -1.349786
vt 30.133232 -1.349786
vt 30.133247 1.116595
vt -29.799835 -0.116595
s 0
usemtl Material.034
f 282/17/5 283/18/5 281/19/5
f 288/20/6 285/21/6 287/22/6
f 284/23/7 286/24/7 288/20/7
f 290/17/5 291/18/5 289/19/5
f 296/20/6 293/21/6 295/22/6
f 292/23/7 294/24/7 296/20/7
f 298/17/5 299/18/5 297/19/5
f 304/20/6 301/21/6 303/22/6
f 300/23/7 302/24/7 304/20/7
f 306/17/5 307/18/5 305/19/5
f 312/20/6 309/21/6 311/22/6
f 308/23/7 310/24/7 312/20/7
f 282/17/5 284/23/5 283/18/5
f 288/20/6 286/24/6 285/21/6
f 284/23/7 282/17/7 286/24/7
f 290/17/5 292/23/5 291/18/5
f 296/20/6 294/24/6 293/21/6
f 292/23/7 290/17/7 294/24/7
f 298/17/5 300/23/5 299/18/5
f 304/20/6 302/24/6 301/21/6
f 300/23/7 298/17/7 302/24/7
f 306/17/5 308/23/5 307/18/5
f 312/20/6 310/24/6 309/21/6
f 308/23/7 306/17/7 310/24/7
